<svg width="24px" height="24px" viewBox="0 0 24 24" version="1.1" xmlns="http://www.w3.org/2000/svg" xmlns:xlink="http://www.w3.org/1999/xlink">
    <g id="Page-1" stroke="none" stroke-width="1" fill="#1A3270" fill-rule="evenodd">
        <g id="Main-Screen-Empty-State" transform="translate(-141.000000, -457.000000)">
            <g id="Plus-Icon-Copy" transform="translate(141.000000, 457.000000)">
                <path d="M12,23 C18.0751322,23 23,18.0751322 23,12 C23,5.92486775 18.0751322,1 12,1 C5.92486775,1 1,5.92486775 1,12 C1,18.0751322 5.92486775,23 12,23 Z" id="Rectangle" stroke="#FFFFFF" stroke-width="2" fill-rule="nonzero"></path>
                <g id="e-add" transform="translate(7.000000, 7.000000)" fill="#FFFFFF">
                    <path d="M9.16666667,4.16666667 L5.83333333,4.16666667 L5.83333333,0.833333333 C5.83333333,0.373096042 5.46023729,2.81814063e-17 5,0 C4.53976271,-2.81814063e-17 4.16666667,0.373096042 4.16666667,0.833333333 L4.16666667,4.16666667 L0.833333333,4.16666667 C0.373096042,4.16666667 5.63628126e-17,4.53976271 0,5 C-5.63628126e-17,5.46023729 0.373096042,5.83333333 0.833333333,5.83333333 L4.16666667,5.83333333 L4.16666667,9.16666667 C4.16666667,9.62690396 4.53976271,10 5,10 C5.46023729,10 5.83333333,9.62690396 5.83333333,9.16666667 L5.83333333,5.83333333 L9.16666667,5.83333333 C9.62690396,5.83333333 10,5.46023729 10,5 C10,4.53976271 9.62690396,4.16666667 9.16666667,4.16666667 Z" id="Path"></path>
                </g>
            </g>
        </g>
    </g>
</svg>
