<svg width="29px" height="29px" viewBox="0 0 29 29" version="1.1" xmlns="http://www.w3.org/2000/svg" xmlns:xlink="http://www.w3.org/1999/xlink">
    <defs>
        <polygon id="path-1" points="0 0.109413043 19.7595652 0.109413043 19.7595652 19.8695652 0 19.8695652"></polygon>
    </defs>
    <g id="Page-1" stroke="none" stroke-width="1" fill="none" fill-rule="evenodd" opacity="0.499651228">
        <g id="Main-Screen" transform="translate(-45.000000, -134.000000)">
            <g id="Group-6" transform="translate(45.000000, 134.000000)">
                <path d="M13.4162609,10.5474783 L23.5523478,0.411391304 C24.1014783,-0.136434783 24.9897391,-0.136434783 25.5375652,0.411391304 L28.5088696,3.38269565 C29.0566957,3.93052174 29.0566957,4.81878261 28.5088696,5.3666087 C28.2114783,5.664 27.794087,5.81269565 27.3753913,5.76965217 L24.6427826,5.49313043 C24.5827826,5.4866087 24.5306087,5.53878261 24.5358261,5.60008696 L24.8136522,8.3313913 C24.8566957,8.7513913 24.708,9.16747826 24.4106087,9.46486957 L24.3427826,9.53269565 C24.044087,9.8313913 23.628,9.97878261 23.2093043,9.93704348 L20.4766957,9.65921739 C20.4153913,9.65269565 20.3632174,9.70486957 20.3697391,9.76617391 L20.6475652,12.4987826 C20.6893043,12.9174783 20.541913,13.3335652 20.2432174,13.6322609 L18.3727826,15.5026957 L13.4162609,10.5474783 Z" id="Fill-1" fill="#373E66"></path>
                <g id="Group-5" transform="translate(0.000000, 9.050435)">
                    <mask id="mask-2" fill="white">
                        <use xlink:href="#path-1"></use>
                    </mask>
                    <g id="Clip-4"></g>
                    <path d="M12.0991304,15.4182174 C11.0530435,16.4643043 9.50086957,16.6077826 8.63217391,15.739087 L6.78913043,13.8947391 L4.10869565,11.2156087 C3.24,10.346913 3.38347826,8.79473913 4.42956522,7.74865217 C5.47565217,6.70256522 6.3,7.28691304 7.16869565,8.1556087 L9.84782609,10.8347391 L11.6921739,12.679087 C12.5608696,13.5477826 13.1452174,14.3721304 12.0991304,15.4182174 M16.0147826,17.7921304 L18.6482609,15.1586522 C20.13,13.6756087 20.13,11.2716957 18.6482609,9.78995652 L10.08,1.22169565 C8.59695652,-0.261347826 6.19434783,-0.261347826 4.71130435,1.22169565 L2.07782609,3.85517391 C-0.692608696,6.6256087 -0.692608696,11.1177826 2.07782609,13.8882174 L5.98173913,17.7921304 C8.75217391,20.5625652 13.2443478,20.5625652 16.0147826,17.7921304" id="Fill-3" fill="#373E66" mask="url(#mask-2)"></path>
                </g>
            </g>
        </g>
    </g>
</svg>
