<svg id="Layer_1" data-name="Layer 1" xmlns="http://www.w3.org/2000/svg" viewBox="0 0 838.33 1089.33"><defs><style>.cls-1{fill:#425788;}.cls-2{fill:#4c608f;}</style></defs><title>dot-pattern-bg</title><g id="Page-1"><g id="Advanced-Settings"><g id="Dot-Pattern"><g id="New-Square-pattern"><rect id="Rectangle" class="cls-1" x="64.39" y="256.67" width="4.67" height="4.67"/><rect class="cls-1" y="256.67" width="4.67" height="4.67"/><rect class="cls-1" x="128.77" y="256.67" width="4.67" height="4.67"/><rect class="cls-1" x="257.54" y="256.67" width="4.67" height="4.67"/><rect class="cls-1" x="194.09" y="256.67" width="4.67" height="4.67"/><rect class="cls-1" x="64.39" y="127.87" width="4.67" height="4.67"/><rect class="cls-1" x="64.39" y="193.2" width="4.67" height="4.67"/><rect class="cls-1" y="127.87" width="4.67" height="4.67"/><rect class="cls-1" y="193.2" width="4.67" height="4.67"/><rect class="cls-1" x="128.77" y="127.87" width="4.67" height="4.67"/><rect class="cls-1" x="128.77" y="193.2" width="4.67" height="4.67"/><rect class="cls-1" x="257.54" y="127.87" width="4.67" height="4.67"/><rect class="cls-1" x="257.54" y="193.2" width="4.67" height="4.67"/><rect class="cls-1" x="194.09" y="127.87" width="4.67" height="4.67"/><rect class="cls-1" x="194.09" y="193.2" width="4.67" height="4.67"/><rect class="cls-1" x="64.39" width="4.67" height="4.67"/><rect class="cls-1" x="64.39" y="64.4" width="4.67" height="4.67"/><rect class="cls-1" width="4.67" height="4.67"/><rect class="cls-1" y="64.4" width="4.67" height="4.67"/><rect class="cls-1" x="128.77" width="4.67" height="4.67"/><rect class="cls-1" x="128.77" y="64.4" width="4.67" height="4.67"/><rect class="cls-1" x="257.54" width="4.67" height="4.67"/><rect class="cls-1" x="257.54" y="64.4" width="4.67" height="4.67"/><rect class="cls-1" x="194.09" width="4.67" height="4.67"/><rect class="cls-1" x="194.09" y="64.4" width="4.67" height="4.67"/><rect id="Rectangle-Copy-226" class="cls-1" x="64.39" y="448.93" width="4.67" height="4.67"/><rect id="Rectangle-Copy-225" class="cls-1" x="64.39" y="513.33" width="4.67" height="4.67"/><rect id="Rectangle-Copy-224" class="cls-1" y="448.93" width="4.67" height="4.67"/><rect id="Rectangle-Copy-223" class="cls-1" y="513.33" width="4.67" height="4.67"/><rect id="Rectangle-Copy-222" class="cls-1" x="128.77" y="448.93" width="4.67" height="4.67"/><rect id="Rectangle-Copy-221" class="cls-1" x="128.77" y="513.33" width="4.67" height="4.67"/><rect id="Rectangle-Copy-220" class="cls-1" x="257.54" y="448.93" width="4.67" height="4.67"/><rect id="Rectangle-Copy-219" class="cls-1" x="257.54" y="513.33" width="4.67" height="4.67"/><rect id="Rectangle-Copy-218" class="cls-1" x="194.09" y="448.93" width="4.67" height="4.67"/><rect id="Rectangle-Copy-217" class="cls-1" x="194.09" y="513.33" width="4.67" height="4.67"/><rect id="Rectangle-Copy-216" class="cls-1" x="64.39" y="321.07" width="4.67" height="4.67"/><rect id="Rectangle-Copy-215" class="cls-1" x="64.39" y="384.53" width="4.67" height="4.67"/><rect id="Rectangle-Copy-214" class="cls-1" y="321.07" width="4.67" height="4.67"/><rect id="Rectangle-Copy-213" class="cls-1" y="384.53" width="4.67" height="4.67"/><rect id="Rectangle-Copy-212" class="cls-1" x="128.77" y="321.07" width="4.67" height="4.67"/><rect id="Rectangle-Copy-211" class="cls-1" x="128.77" y="384.53" width="4.67" height="4.67"/><rect id="Rectangle-Copy-210" class="cls-1" x="257.54" y="321.07" width="4.67" height="4.67"/><rect id="Rectangle-Copy-209" class="cls-1" x="257.54" y="384.53" width="4.67" height="4.67"/><rect id="Rectangle-Copy-208" class="cls-1" x="194.09" y="321.07" width="4.67" height="4.67"/><rect id="Rectangle-Copy-207" class="cls-1" x="194.09" y="384.53" width="4.67" height="4.67"/><rect id="Rectangle-Copy-281" class="cls-1" x="386.31" y="256.67" width="4.67" height="4.67"/><rect id="Rectangle-Copy-280" class="cls-1" x="321.93" y="256.67" width="4.67" height="4.67"/><rect id="Rectangle-Copy-279" class="cls-1" x="450.7" y="256.67" width="4.67" height="4.67"/><rect id="Rectangle-Copy-278" class="cls-1" x="580.41" y="256.67" width="4.67" height="4.67"/><rect id="Rectangle-Copy-277" class="cls-1" x="516.02" y="256.67" width="4.67" height="4.67"/><rect id="Rectangle-Copy-276" class="cls-1" x="386.31" y="127.87" width="4.67" height="4.67"/><rect id="Rectangle-Copy-275" class="cls-1" x="386.31" y="193.2" width="4.67" height="4.67"/><rect id="Rectangle-Copy-274" class="cls-1" x="321.93" y="127.87" width="4.67" height="4.67"/><rect id="Rectangle-Copy-273" class="cls-1" x="321.93" y="193.2" width="4.67" height="4.67"/><rect id="Rectangle-Copy-272" class="cls-1" x="450.7" y="127.87" width="4.67" height="4.67"/><rect id="Rectangle-Copy-271" class="cls-1" x="450.7" y="193.2" width="4.67" height="4.67"/><rect id="Rectangle-Copy-270" class="cls-1" x="580.41" y="127.87" width="4.67" height="4.67"/><rect id="Rectangle-Copy-269" class="cls-1" x="580.41" y="193.2" width="4.67" height="4.67"/><rect id="Rectangle-Copy-268" class="cls-1" x="516.02" y="127.87" width="4.67" height="4.67"/><rect id="Rectangle-Copy-267" class="cls-1" x="516.02" y="193.2" width="4.67" height="4.67"/><rect id="Rectangle-Copy-266" class="cls-1" x="386.31" width="4.67" height="4.67"/><rect id="Rectangle-Copy-265" class="cls-1" x="386.31" y="64.4" width="4.67" height="4.67"/><rect id="Rectangle-Copy-264" class="cls-1" x="321.93" width="4.67" height="4.67"/><rect id="Rectangle-Copy-263" class="cls-1" x="321.93" y="64.4" width="4.67" height="4.67"/><rect id="Rectangle-Copy-262" class="cls-1" x="450.7" width="4.67" height="4.67"/><rect id="Rectangle-Copy-261" class="cls-1" x="450.7" y="64.4" width="4.67" height="4.67"/><rect id="Rectangle-Copy-260" class="cls-1" x="580.41" width="4.67" height="4.67"/><rect id="Rectangle-Copy-259" class="cls-1" x="580.41" y="64.4" width="4.67" height="4.67"/><rect id="Rectangle-Copy-258" class="cls-1" x="516.02" width="4.67" height="4.67"/><rect id="Rectangle-Copy-257" class="cls-1" x="516.02" y="64.4" width="4.67" height="4.67"/><rect id="Rectangle-Copy-251" class="cls-1" x="386.31" y="448.93" width="4.67" height="4.67"/><rect id="Rectangle-Copy-250" class="cls-1" x="386.31" y="513.33" width="4.67" height="4.67"/><rect id="Rectangle-Copy-249" class="cls-1" x="321.93" y="448.93" width="4.67" height="4.67"/><rect id="Rectangle-Copy-248" class="cls-1" x="321.93" y="513.33" width="4.67" height="4.67"/><rect id="Rectangle-Copy-247" class="cls-1" x="450.7" y="448.93" width="4.67" height="4.67"/><rect id="Rectangle-Copy-246" class="cls-1" x="450.7" y="513.33" width="4.67" height="4.67"/><rect id="Rectangle-Copy-245" class="cls-1" x="580.41" y="448.93" width="4.67" height="4.67"/><rect id="Rectangle-Copy-244" class="cls-1" x="580.41" y="513.33" width="4.67" height="4.67"/><rect id="Rectangle-Copy-243" class="cls-1" x="516.02" y="448.93" width="4.67" height="4.67"/><rect id="Rectangle-Copy-242" class="cls-1" x="516.02" y="513.33" width="4.67" height="4.67"/><rect id="Rectangle-Copy-241" class="cls-1" x="386.31" y="321.07" width="4.67" height="4.67"/><rect id="Rectangle-Copy-240" class="cls-1" x="386.31" y="384.53" width="4.67" height="4.67"/><rect id="Rectangle-Copy-239" class="cls-1" x="321.93" y="321.07" width="4.67" height="4.67"/><rect id="Rectangle-Copy-238" class="cls-1" x="321.93" y="384.53" width="4.67" height="4.67"/><rect id="Rectangle-Copy-237" class="cls-1" x="450.7" y="321.07" width="4.67" height="4.67"/><rect id="Rectangle-Copy-236" class="cls-1" x="450.7" y="384.53" width="4.67" height="4.67"/><rect id="Rectangle-Copy-235" class="cls-1" x="580.41" y="321.07" width="4.67" height="4.67"/><rect id="Rectangle-Copy-234" class="cls-1" x="580.41" y="384.53" width="4.67" height="4.67"/><rect id="Rectangle-Copy-233" class="cls-1" x="516.02" y="321.07" width="4.67" height="4.67"/><rect id="Rectangle-Copy-232" class="cls-1" x="516.02" y="384.53" width="4.67" height="4.67"/><rect id="Rectangle-Copy-331" class="cls-1" x="708.24" y="256.67" width="4.67" height="4.67"/><rect id="Rectangle-Copy-330" class="cls-1" x="644.79" y="256.67" width="4.67" height="4.67"/><rect id="Rectangle-Copy-329" class="cls-1" x="772.63" y="256.67" width="4.67" height="4.67"/><rect id="Rectangle-Copy-326" class="cls-1" x="708.24" y="127.87" width="4.67" height="4.67"/><rect id="Rectangle-Copy-325" class="cls-1" x="708.24" y="193.2" width="4.67" height="4.67"/><rect id="Rectangle-Copy-324" class="cls-1" x="644.79" y="127.87" width="4.67" height="4.67"/><rect id="Rectangle-Copy-323" class="cls-1" x="644.79" y="193.2" width="4.67" height="4.67"/><rect id="Rectangle-Copy-322" class="cls-1" x="772.63" y="127.87" width="4.67" height="4.67"/><rect id="Rectangle-Copy-321" class="cls-1" x="772.63" y="193.2" width="4.67" height="4.67"/><rect id="Rectangle-Copy-316" class="cls-1" x="708.24" width="4.67" height="4.67"/><rect id="Rectangle-Copy-315" class="cls-1" x="708.24" y="64.4" width="4.67" height="4.67"/><rect id="Rectangle-Copy-314" class="cls-1" x="644.79" width="4.67" height="4.67"/><rect id="Rectangle-Copy-313" class="cls-1" x="644.79" y="64.4" width="4.67" height="4.67"/><rect id="Rectangle-Copy-312" class="cls-1" x="772.63" width="4.67" height="4.67"/><rect id="Rectangle-Copy-311" class="cls-1" x="772.63" y="64.4" width="4.67" height="4.67"/><rect id="Rectangle-Copy-301" class="cls-1" x="708.24" y="448.93" width="4.67" height="4.67"/><rect id="Rectangle-Copy-300" class="cls-1" x="708.24" y="513.33" width="4.67" height="4.67"/><rect id="Rectangle-Copy-299" class="cls-1" x="644.79" y="448.93" width="4.67" height="4.67"/><rect id="Rectangle-Copy-298" class="cls-1" x="644.79" y="513.33" width="4.67" height="4.67"/><rect id="Rectangle-Copy-297" class="cls-1" x="772.63" y="448.93" width="4.67" height="4.67"/><rect id="Rectangle-Copy-296" class="cls-1" x="772.63" y="513.33" width="4.67" height="4.67"/><rect id="Rectangle-Copy-291" class="cls-1" x="708.24" y="321.07" width="4.67" height="4.67"/><rect id="Rectangle-Copy-290" class="cls-1" x="708.24" y="384.53" width="4.67" height="4.67"/><rect id="Rectangle-Copy-289" class="cls-1" x="644.79" y="321.07" width="4.67" height="4.67"/><rect id="Rectangle-Copy-288" class="cls-1" x="644.79" y="384.53" width="4.67" height="4.67"/><rect id="Rectangle-Copy-287" class="cls-1" x="772.63" y="321.07" width="4.67" height="4.67"/><rect id="Rectangle-Copy-286" class="cls-1" x="772.63" y="384.53" width="4.67" height="4.67"/></g><g id="New-Square-pattern-Copy-2"><g id="New-Square-pattern-Copy"><rect class="cls-2" x="64.39" y="832.67" width="4.67" height="4.67"/><rect class="cls-2" y="832.67" width="4.67" height="4.67"/><rect class="cls-2" x="128.77" y="832.67" width="4.67" height="4.67"/><rect class="cls-2" x="257.54" y="832.67" width="4.67" height="4.67"/><rect class="cls-2" x="194.09" y="832.67" width="4.67" height="4.67"/><rect class="cls-2" x="64.39" y="703.87" width="4.67" height="4.67"/><rect class="cls-2" x="64.39" y="769.2" width="4.67" height="4.67"/><rect class="cls-2" y="703.87" width="4.67" height="4.67"/><rect class="cls-2" y="769.2" width="4.67" height="4.67"/><rect class="cls-2" x="128.77" y="703.87" width="4.67" height="4.67"/><rect class="cls-2" x="128.77" y="769.2" width="4.67" height="4.67"/><rect class="cls-2" x="257.54" y="703.87" width="4.67" height="4.67"/><rect class="cls-2" x="257.54" y="769.2" width="4.67" height="4.67"/><rect class="cls-2" x="194.09" y="703.87" width="4.67" height="4.67"/><rect class="cls-2" x="194.09" y="769.2" width="4.67" height="4.67"/><rect class="cls-2" x="64.39" y="576" width="4.67" height="4.67"/><rect class="cls-2" x="64.39" y="640.4" width="4.67" height="4.67"/><rect class="cls-2" y="576" width="4.67" height="4.67"/><rect class="cls-2" y="640.4" width="4.67" height="4.67"/><rect class="cls-2" x="128.77" y="576" width="4.67" height="4.67"/><rect class="cls-2" x="128.77" y="640.4" width="4.67" height="4.67"/><rect class="cls-2" x="257.54" y="576" width="4.67" height="4.67"/><rect class="cls-2" x="257.54" y="640.4" width="4.67" height="4.67"/><rect class="cls-2" x="194.09" y="576" width="4.67" height="4.67"/><rect class="cls-2" x="194.09" y="640.4" width="4.67" height="4.67"/><rect class="cls-2" x="64.39" y="1024.93" width="4.67" height="4.67"/><rect class="cls-2" y="1024.93" width="4.67" height="4.67"/><rect class="cls-2" x="128.77" y="1024.93" width="4.67" height="4.67"/><rect class="cls-2" x="257.54" y="1024.93" width="4.67" height="4.67"/><rect class="cls-2" x="194.09" y="1024.93" width="4.67" height="4.67"/><rect class="cls-2" x="64.39" y="897.07" width="4.67" height="4.67"/><rect class="cls-2" x="64.39" y="960.53" width="4.67" height="4.67"/><rect class="cls-2" y="897.07" width="4.67" height="4.67"/><rect class="cls-2" y="960.53" width="4.67" height="4.67"/><rect class="cls-2" x="128.77" y="897.07" width="4.67" height="4.67"/><rect class="cls-2" x="128.77" y="960.53" width="4.67" height="4.67"/><rect class="cls-2" x="257.54" y="897.07" width="4.67" height="4.67"/><rect class="cls-2" x="257.54" y="960.53" width="4.67" height="4.67"/><rect class="cls-2" x="194.09" y="897.07" width="4.67" height="4.67"/><rect class="cls-2" x="194.09" y="960.53" width="4.67" height="4.67"/><rect class="cls-2" x="386.31" y="832.67" width="4.67" height="4.67"/><rect class="cls-2" x="321.93" y="832.67" width="4.67" height="4.67"/><rect class="cls-2" x="450.7" y="832.67" width="4.67" height="4.67"/><rect class="cls-2" x="580.41" y="832.67" width="4.67" height="4.67"/><rect class="cls-2" x="516.02" y="832.67" width="4.67" height="4.67"/><rect class="cls-2" x="386.31" y="703.87" width="4.67" height="4.67"/><rect class="cls-2" x="386.31" y="769.2" width="4.67" height="4.67"/><rect class="cls-2" x="321.93" y="703.87" width="4.67" height="4.67"/><rect class="cls-2" x="321.93" y="769.2" width="4.67" height="4.67"/><rect class="cls-2" x="450.7" y="703.87" width="4.67" height="4.67"/><rect class="cls-2" x="450.7" y="769.2" width="4.67" height="4.67"/><rect class="cls-2" x="580.41" y="703.87" width="4.67" height="4.67"/><rect class="cls-2" x="580.41" y="769.2" width="4.67" height="4.67"/><rect class="cls-2" x="516.02" y="703.87" width="4.67" height="4.67"/><rect class="cls-2" x="516.02" y="769.2" width="4.67" height="4.67"/><rect class="cls-2" x="386.31" y="576" width="4.67" height="4.67"/><rect class="cls-2" x="386.31" y="640.4" width="4.67" height="4.67"/><rect class="cls-2" x="321.93" y="576" width="4.67" height="4.67"/><rect class="cls-2" x="321.93" y="640.4" width="4.67" height="4.67"/><rect class="cls-2" x="450.7" y="576" width="4.67" height="4.67"/><rect class="cls-2" x="450.7" y="640.4" width="4.67" height="4.67"/><rect class="cls-2" x="580.41" y="576" width="4.67" height="4.67"/><rect class="cls-2" x="580.41" y="640.4" width="4.67" height="4.67"/><rect class="cls-2" x="516.02" y="576" width="4.67" height="4.67"/><rect class="cls-2" x="516.02" y="640.4" width="4.67" height="4.67"/><rect class="cls-2" x="386.31" y="1024.93" width="4.67" height="4.67"/><rect class="cls-2" x="321.93" y="1024.93" width="4.67" height="4.67"/><rect class="cls-2" x="450.7" y="1024.93" width="4.67" height="4.67"/><rect class="cls-2" x="580.41" y="1024.93" width="4.67" height="4.67"/><rect class="cls-2" x="516.02" y="1024.93" width="4.67" height="4.67"/><rect class="cls-2" x="386.31" y="897.07" width="4.67" height="4.67"/><rect class="cls-2" x="386.31" y="960.53" width="4.67" height="4.67"/><rect class="cls-2" x="321.93" y="897.07" width="4.67" height="4.67"/><rect class="cls-2" x="321.93" y="960.53" width="4.67" height="4.67"/><rect class="cls-2" x="450.7" y="897.07" width="4.67" height="4.67"/><rect class="cls-2" x="450.7" y="960.53" width="4.67" height="4.67"/><rect class="cls-2" x="580.41" y="897.07" width="4.67" height="4.67"/><rect class="cls-2" x="580.41" y="960.53" width="4.67" height="4.67"/><rect class="cls-2" x="516.02" y="897.07" width="4.67" height="4.67"/><rect class="cls-2" x="516.02" y="960.53" width="4.67" height="4.67"/><rect class="cls-2" x="708.24" y="832.67" width="4.67" height="4.67"/><rect class="cls-2" x="644.79" y="832.67" width="4.67" height="4.67"/><rect class="cls-2" x="772.63" y="832.67" width="4.67" height="4.67"/><rect class="cls-2" x="708.24" y="703.87" width="4.67" height="4.67"/><rect class="cls-2" x="708.24" y="769.2" width="4.67" height="4.67"/><rect class="cls-2" x="644.79" y="703.87" width="4.67" height="4.67"/><rect class="cls-2" x="644.79" y="769.2" width="4.67" height="4.67"/><rect class="cls-2" x="772.63" y="703.87" width="4.67" height="4.67"/><rect class="cls-2" x="772.63" y="769.2" width="4.67" height="4.67"/><rect class="cls-2" x="708.24" y="576" width="4.67" height="4.67"/><rect class="cls-2" x="708.24" y="640.4" width="4.67" height="4.67"/><rect class="cls-2" x="644.79" y="576" width="4.67" height="4.67"/><rect class="cls-2" x="644.79" y="640.4" width="4.67" height="4.67"/><rect class="cls-2" x="772.63" y="576" width="4.67" height="4.67"/><rect class="cls-2" x="772.63" y="640.4" width="4.67" height="4.67"/><rect class="cls-2" x="708.24" y="1024.93" width="4.67" height="4.67"/><rect class="cls-2" x="644.79" y="1024.93" width="4.67" height="4.67"/><rect class="cls-2" x="772.63" y="1024.93" width="4.67" height="4.67"/><rect class="cls-2" x="708.24" y="897.07" width="4.67" height="4.67"/><rect class="cls-2" x="708.24" y="960.53" width="4.67" height="4.67"/><rect class="cls-2" x="644.79" y="897.07" width="4.67" height="4.67"/><rect class="cls-2" x="644.79" y="960.53" width="4.67" height="4.67"/><rect class="cls-2" x="772.63" y="897.07" width="4.67" height="4.67"/><rect class="cls-2" x="772.63" y="960.53" width="4.67" height="4.67"/></g></g></g></g></g></svg>