<?xml version="1.0" encoding="UTF-8"?>
<svg width="171px" height="171px" viewBox="0 0 171 171" version="1.1" xmlns="http://www.w3.org/2000/svg" xmlns:xlink="http://www.w3.org/1999/xlink">
    <!-- Generator: Sketch 52.2 (67145) - http://www.bohemiancoding.com/sketch -->
    <title>Error</title>
    <desc>Created with Sketch.</desc>
    <defs>
        <linearGradient x1="0%" y1="100%" x2="100%" y2="0%" id="linearGradient-1">
            <stop stop-color="#FF8C28" offset="0%"></stop>
            <stop stop-color="#FF3939" offset="100%"></stop>
        </linearGradient>
    </defs>
    <g id="Apps-and-Devices-MVP-Design" stroke="none" stroke-width="1" fill="none" fill-rule="evenodd">
        <g id="Auths---Import-Key---Confirmation-Copy" transform="translate(-101.000000, -189.000000)" fill-rule="nonzero">
            <g id="Error" transform="translate(101.000000, 189.000000)">
                <circle id="Oval-2" fill-opacity="0.1" fill="#FF4D35" cx="85.5" cy="85.5" r="85.5"></circle>
                <path d="M86.5,45 C109.325,45 128,63.675 128,86.5 C128,109.325 109.325,128 86.5,128 C63.675,128 45,109.325 45,86.5 C45,63.675 63.675,45 86.5,45 Z M86.2630588,78.5334778 L74.1255903,66.3960093 L66.3960093,74.1255903 L78.5334778,86.2630588 L66.6170404,98.1794962 L74.3466214,105.909077 L86.2630588,93.9926398 L97.9584651,105.688046 L105.688046,97.9584651 L93.9926398,86.2630588 L105.909077,74.3466214 L98.1794962,66.6170404 L86.2630588,78.5334778 Z" id="Combined-Shape" fill="url(#linearGradient-1)"></path>
            </g>
        </g>
    </g>
</svg>
