<svg id="Layer_1" data-name="Layer 1" xmlns="http://www.w3.org/2000/svg" viewBox="0 0 24 24"><defs><style>.cls-1{fill:#c1c5d1;}</style></defs><title>Chrome extension empty state illos</title><path class="cls-1" d="M20.54,7.77,18,10.3a6,6,0,0,1,.24,1.7A6.25,6.25,0,0,1,12,18.25,6,6,0,0,1,10.3,18L8.47,19.84a9.2,9.2,0,0,0,3.53.73c7.05,0,11.69-8.57,11.69-8.57A22.33,22.33,0,0,0,20.54,7.77Z"/><path class="cls-1" d="M21.42,1,17.29,5.08A9.93,9.93,0,0,0,12,3.43C5,3.43.31,12,.31,12a22.75,22.75,0,0,0,4.53,5.53L1,21.42l1.63,1.63L23.05,2.58ZM5.75,12A6.25,6.25,0,0,1,12,5.75a6.17,6.17,0,0,1,3.52,1.09L13.18,9.18a3.05,3.05,0,0,0-4,4L6.84,15.52A6.17,6.17,0,0,1,5.75,12Z"/></svg>
