<?xml version="1.0" encoding="UTF-8"?>
<svg width="79px" height="90px" viewBox="0 0 79 90" version="1.1" xmlns="http://www.w3.org/2000/svg" xmlns:xlink="http://www.w3.org/1999/xlink">
    <!-- Generator: Sketch 52.6 (67491) - http://www.bohemiancoding.com/sketch -->
    <title>Lock screen</title>
    <desc>Created with Sketch.</desc>
    <g id="Page-1" stroke="none" stroke-width="1" fill="none" fill-rule="evenodd" stroke-linecap="round">
        <g id="Error-Lockout" transform="translate(-148.000000, -109.000000)" fill="#FFFFFF" stroke="#1A3270" stroke-width="3">
            <g id="Lock-screen" transform="translate(150.000000, 110.000000)">
                <path d="M65.31,32.58 L65.31,27.91 C65.31,20.640416 62.422169,13.6685753 57.2817969,8.52820313 C52.1414247,3.38783099 45.169584,0.5 37.9,0.5 C30.6286836,0.497347203 23.6542735,3.38400705 18.5117383,8.52466674 C13.3692032,13.6653264 10.4799995,20.6386831 10.48,27.91 L10.48,55.33 L20.48,55.33 L20.48,27.91 C20.7065966,18.454511 28.4367963,10.9073428 37.895,10.9073428 C47.3532037,10.9073428 55.0834034,18.454511 55.31,27.91 L55.31,55.33" id="Path"></path>
                <path d="M9.46,87.25 C4.48943725,87.25 0.46,83.2205627 0.46,78.25 L0.46,52.23 C0.457314007,48.7956418 1.82315853,45.5017586 4.25536774,43.0770562 C6.68757696,40.6523538 9.98566653,39.2966978 13.42,39.31 L62.37,39.31 C65.7974106,39.3073441 69.0852065,40.6677016 71.5087524,43.0912476 C73.9322984,45.5147935 75.2926559,48.8025894 75.29,52.23 L75.29,78.29 C75.29,83.2605627 71.2605627,87.29 66.29,87.29 L17.62,87.29" id="Path"></path>
                <path d="M42.1,64.15 C44.9043518,62.2943222 46.1607577,58.8197763 45.1918251,55.5996679 C44.2228924,52.3795594 41.2577264,50.1752872 37.895,50.1752872 C34.5322736,50.1752872 31.5671076,52.3795594 30.5981749,55.5996679 C29.6292423,58.8197763 30.8856482,62.2943222 33.69,64.15 L30.45,73.86 C30.4116748,73.9785125 30.4322622,74.1082025 30.5054045,74.2090203 C30.5785468,74.3098381 30.6954451,74.3696554 30.82,74.37 L45.51,74.37" id="Path"></path>
            </g>
        </g>
    </g>
</svg>