<svg width="57px" height="91px" viewBox="0 0 57 91" version="1.1" xmlns="http://www.w3.org/2000/svg" xmlns:xlink="http://www.w3.org/1999/xlink">
    <g id="Page-1" stroke="none" stroke-width="1" fill="none" fill-rule="evenodd">
        <g id="Main-Screen-Empty-State" transform="translate(-163.000000, -138.000000)">
            <g id="Group-15" transform="translate(164.000000, 139.000000)">
                <path d="M43.4718,45.8082 L10.7498,45.8082 C5.0898,45.8082 0.4998,41.2192 0.4998,35.5582 L0.4998,19.6572 C0.4998,9.0772 9.0768,0.5002 19.6568,0.5002 L34.5648,0.5002 C45.1448,0.5002 53.7218,9.0772 53.7218,19.6572 L53.7218,35.5582 C53.7218,41.2192 49.1328,45.8082 43.4718,45.8082" id="Fill-1"></path>
                <path d="M43.4718,45.8082 L10.7498,45.8082 C5.0898,45.8082 0.4998,41.2192 0.4998,35.5582 L0.4998,19.6572 C0.4998,9.0772 9.0768,0.5002 19.6568,0.5002 L34.5648,0.5002 C45.1448,0.5002 53.7218,9.0772 53.7218,19.6572 L53.7218,35.5582 C53.7218,41.2192 49.1328,45.8082 43.4718,45.8082 Z" id="Stroke-3" stroke="#C1C5D1" stroke-width="3"></path>
                <path d="M17.649,51.3755 L17.649,84.5185 C17.649,86.6105 19.345,88.3065 21.437,88.3065 L32.785,88.3065 C34.877,88.3065 36.573,86.6105 36.573,84.5185 C36.573,83.3805 36.061,82.3025 35.179,81.5835 L29.434,76.8965 C29.304,76.7915 29.304,76.5925 29.434,76.4875 L35.179,71.8005 C36.061,71.0815 36.573,70.0035 36.573,68.8655 L36.573,68.6065 C36.573,67.4685 36.061,66.3915 35.179,65.6715 L29.434,60.9855 C29.304,60.8795 29.304,60.6815 29.434,60.5755 L35.179,55.8885 C36.061,55.1695 36.573,54.0915 36.573,52.9535 L36.573,46.5315" id="Stroke-5" stroke="#C1C5D1" stroke-width="3" stroke-linecap="round"></path>
                <path d="M34.4102,16.3731 L19.8112,16.3731 C17.0242,16.3731 14.7652,16.0511 14.7652,13.2641 C14.7652,10.4771 17.0242,8.2181 19.8112,8.2181 L34.4102,8.2181 C37.1972,8.2181 39.4562,10.4771 39.4562,13.2641" id="Stroke-7" stroke="#C1C5D1" stroke-width="3" stroke-linecap="round"></path>
                <path d="M13.4166,27.6822 L13.4166,31.3272" id="Stroke-9" stroke="#C1C5D1" stroke-width="3" stroke-linecap="round"></path>
                <path d="M40.8053,27.6822 L40.8053,31.3272" id="Stroke-11" stroke="#C1C5D1" stroke-width="3" stroke-linecap="round"></path>
                <path d="M20.524,35.1846 C21.697,33.4406 24.201,32.2326 27.111,32.2326 C30.021,32.2326 32.525,33.4406 33.698,35.1846" id="Stroke-13" stroke="#C1C5D1" stroke-width="3" stroke-linecap="round"></path>
            </g>
        </g>
    </g>
</svg>
