<svg width="37px" height="37px" viewBox="0 0 37 37" version="1.1" xmlns="http://www.w3.org/2000/svg" xmlns:xlink="http://www.w3.org/1999/xlink">
    <g id="MVP-Chrome-Extension" stroke="none" stroke-width="1" fill="none" fill-rule="evenodd">
        <g id="Edit-Key-Screen" transform="translate(-321.000000, -35.000000)" fill-rule="nonzero" stroke="#C1C5D1" stroke-width="2">
            <g id="Edit-Key-Page">
                <g id="Settings-Gear" transform="translate(322.000000, 36.000000)">
                    <path d="M33.1078125,14.84 C30.2575,14.126875 28.905625,10.863125 30.4171875,8.3453125 C31.1215625,7.1728125 30.909375,6.1621875 30.2115625,5.4665625 L29.5334375,4.7884375 C28.8378125,4.0928125 27.8271875,3.880625 26.6546875,4.5828125 C24.1346875,6.094375 20.8709375,4.7425 20.16,1.8921875 C19.8296875,0.564375 18.9634375,0 17.9790625,0 L17.0209375,0 C16.0365625,0 15.1725,0.564375 14.84,1.8921875 C14.126875,4.7425 10.863125,6.094375 8.3453125,4.5828125 C7.1728125,3.8784375 6.16,4.090625 5.464375,4.78625 L4.78625,5.464375 C4.090625,6.16 3.8784375,7.1728125 4.5828125,8.3453125 C6.094375,10.8653125 4.7425,14.1290625 1.8921875,14.84 C0.56875,15.1703125 0,16.034375 0,17.0209375 L0,17.9790625 C0,18.9634375 0.564375,19.8275 1.8921875,20.16 C4.7425,20.873125 6.094375,24.136875 4.5828125,26.6546875 C3.8784375,27.8271875 4.090625,28.8378125 4.7884375,29.5334375 L5.4665625,30.2115625 C6.164375,30.909375 7.1771875,31.119375 8.3453125,30.4171875 C10.8653125,28.905625 14.1290625,30.2575 14.84,33.1078125 C15.1703125,34.435625 16.0365625,35 17.0209375,35 L17.9790625,35 C18.9634375,35 19.8275,34.435625 20.16,33.1078125 C20.873125,30.2575 24.136875,28.905625 26.6546875,30.4171875 C27.825,31.119375 28.835625,30.909375 29.5334375,30.2115625 L30.2115625,29.5334375 C30.9071875,28.8378125 31.119375,27.8271875 30.4171875,26.6546875 C28.905625,24.1346875 30.2575,20.8709375 33.1078125,20.16 C34.435625,19.8296875 35,18.9634375 35,17.9790625 L35,17.0209375 C35,16.034375 34.43125,15.1703125 33.1078125,14.84 Z M17.5,24.0625 C13.8753125,24.0625 10.9375,21.1246875 10.9375,17.5 C10.9375,13.8753125 13.8753125,10.9375 17.5,10.9375 C21.1246875,10.9375 24.0625,13.8753125 24.0625,17.5 C24.0625,21.1246875 21.1246875,24.0625 17.5,24.0625 Z" id="Cog-Shape"></path>
                </g>
            </g>
        </g>
    </g>
</svg>
