<svg width="124px" height="124px" viewBox="0 0 124 124" version="1.1" xmlns="http://www.w3.org/2000/svg" xmlns:xlink="http://www.w3.org/1999/xlink">
    <g id="Page-1" stroke="none" stroke-width="1" fill="none" fill-rule="evenodd">
        <g id="Main-Screen-Empty-State-Copy" transform="translate(-126.000000, -150.000000)">
            <g id="Group-49" transform="translate(128.000000, 152.000000)">
                <g id="Group-4" transform="translate(1.395349, 0.412326)">
                    <path d="M5.68213953,84.4043721 C2.15051163,76.8220465 0.178883721,68.3676279 0.178883721,59.4527442 C0.178883721,26.7750698 26.668186,0.285767442 59.3458605,0.285767442 C71.1937674,0.285767442 82.228186,3.76855814 91.4821395,9.76576744" id="Fill-1" fill="#FFFFFF"></path>
                    <path d="M5.68213953,84.4043721 C2.15051163,76.8220465 0.178883721,68.3676279 0.178883721,59.4527442 C0.178883721,26.7750698 26.668186,0.285767442 59.3458605,0.285767442 C71.1937674,0.285767442 82.228186,3.76855814 91.4821395,9.76576744" id="Stroke-3" stroke="#1A3270" stroke-width="4" stroke-linecap="round" stroke-linejoin="round"></path>
                </g>
                <g id="Group-8" transform="translate(11.162791, 92.505349)">
                    <path d="M89.3609302,11.1566512 C78.8539535,20.7064186 64.8962791,26.527814 49.5781395,26.527814 C29.2925581,26.527814 11.3916279,16.3180465 0.73255814,0.758511628" id="Fill-5" fill="#FFFFFF"></path>
                    <path d="M89.3609302,11.1566512 C78.8539535,20.7064186 64.8962791,26.527814 49.5781395,26.527814 C29.2925581,26.527814 11.3916279,16.3180465 0.73255814,0.758511628" id="Stroke-7" stroke="#1A3270" stroke-width="4" stroke-linecap="round" stroke-linejoin="round"></path>
                </g>
                <g id="Group-12" transform="translate(104.651163, 19.947209)">
                    <path d="M0.580465116,0.91227907 C9.71860465,11.3271628 15.2581395,24.9750698 15.2581395,39.9178605 C15.2581395,53.0843721 10.9576744,65.2448372 3.68372093,75.0750698" id="Fill-9" fill="#FFFFFF"></path>
                    <path d="M0.580465116,0.91227907 C9.71860465,11.3271628 15.2581395,24.9750698 15.2581395,39.9178605 C15.2581395,53.0843721 10.9576744,65.2448372 3.68372093,75.0750698" id="Stroke-11" stroke="#1A3270" stroke-width="4" stroke-linecap="round" stroke-linejoin="round"></path>
                </g>
                <g id="Group-16" transform="translate(26.511628, 19.551860)">
                    <path d="M31.1963721,8.918 C28.1377674,3.63660465 22.4405581,0.0756744186 15.8977674,0.0756744186 C9.35637209,0.0756744186 3.65776744,3.63660465 0.597767442,8.918" id="Fill-13" fill="#FFFFFF"></path>
                    <path d="M31.1963721,8.918 C28.1377674,3.63660465 22.4405581,0.0756744186 15.8977674,0.0756744186 C9.35637209,0.0756744186 3.65776744,3.63660465 0.597767442,8.918" id="Stroke-15" stroke="#1A3270" stroke-width="4" stroke-linecap="round" stroke-linejoin="round"></path>
                </g>
                <path d="M49.0579535,26.2759535 C49.0579535,29.9471163 46.0802791,32.9247907 42.4091163,32.9247907 C38.7379535,32.9247907 35.7616744,29.9471163 35.7616744,26.2759535 C35.7616744,22.6033953 38.7379535,19.6271163 42.4091163,19.6271163 C46.0802791,19.6271163 49.0579535,22.6033953 49.0579535,26.2759535" id="Fill-17" fill="#FFFFFF"></path>
                <path d="M49.0579535,26.2759535 C49.0579535,29.9471163 46.0802791,32.9247907 42.4091163,32.9247907 C38.7379535,32.9247907 35.7616744,29.9471163 35.7616744,26.2759535 C35.7616744,22.6033953 38.7379535,19.6271163 42.4091163,19.6271163 C46.0802791,19.6271163 49.0579535,22.6033953 49.0579535,26.2759535 Z" id="Stroke-19" stroke="#1A3270" stroke-width="4" stroke-linecap="round" stroke-linejoin="round"></path>
                <g id="Group-24" transform="translate(50.232558, 56.226279)">
                    <path d="M22.6225116,1.02 C16.7257674,-0.551162791 10.1773953,0.96 5.5532093,5.5855814 C0.926232558,10.2125581 -0.584930233,16.7595349 0.986232558,22.6576744" id="Fill-21" fill="#FFFFFF"></path>
                    <path d="M22.6225116,1.02 C16.7257674,-0.551162791 10.1773953,0.96 5.5532093,5.5855814 C0.926232558,10.2125581 -0.584930233,16.7595349 0.986232558,22.6576744" id="Stroke-23" stroke="#1A3270" stroke-width="4" stroke-linecap="round" stroke-linejoin="round"></path>
                </g>
                <path d="M65.1862326,61.8124186 C67.7829767,64.4077674 67.7829767,68.6175349 65.1862326,71.2142791 C62.5908837,73.8110233 58.3811163,73.8110233 55.7857674,71.2142791 C53.1876279,68.6175349 53.1876279,64.4077674 55.7857674,61.8124186 C58.3811163,59.2156744 62.5908837,59.2156744 65.1862326,61.8124186" id="Fill-25" fill="#FFFFFF"></path>
                <path d="M65.1862326,61.8124186 C67.7829767,64.4077674 67.7829767,68.6175349 65.1862326,71.2142791 C62.5908837,73.8110233 58.3811163,73.8110233 55.7857674,71.2142791 C53.1876279,68.6175349 53.1876279,64.4077674 55.7857674,61.8124186 C58.3811163,59.2156744 62.5908837,59.2156744 65.1862326,61.8124186 Z" id="Stroke-27" stroke="#1A3270" stroke-width="4" stroke-linecap="round" stroke-linejoin="round"></path>
                <g id="Group-32" transform="translate(0.000000, 49.249535)">
                    <path d="M13.6918605,0.0893023256 L1.2272093,28.6674419 C-0.579767442,32.8074419 2.45511628,37.4413953 6.97325581,37.4413953 L19.5327907,37.4413953 C22.9960465,37.4413953 25.8034884,34.6339535 25.8034884,31.1693023 C25.8034884,27.7074419 22.9960465,24.9 19.5327907,24.9 L18.4262791,24.9" id="Fill-29" fill="#FFFFFF"></path>
                    <path d="M13.6918605,0.0893023256 L1.2272093,28.6674419 C-0.579767442,32.8074419 2.45511628,37.4413953 6.97325581,37.4413953 L19.5327907,37.4413953 C22.9960465,37.4413953 25.8034884,34.6339535 25.8034884,31.1693023 C25.8034884,27.7074419 22.9960465,24.9 19.5327907,24.9 L18.4262791,24.9" id="Stroke-31" stroke="#1A3270" stroke-width="4" stroke-linecap="round" stroke-linejoin="round"></path>
                </g>
                <g id="Group-36" transform="translate(87.906977, 15.365814)">
                    <path d="M0.352883721,15.917907 C0.352883721,6.90813953 7.87102326,-0.344883721 16.9742791,0.0876744186 C24.9347442,0.465813953 31.513814,6.93604651 32.0161395,14.8881395 C32.233814,18.3039535 31.365907,21.5062791 29.7263721,24.1825581 C27.2133488,28.2848837 25.1705581,32.6760465 24.2273023,37.3937209 C24.0166047,38.45 23.8505581,39.5146512 23.7556744,40.5416279 C23.2045116,46.6239535 18.5273023,51.2983721 12.9989302,51.2983721 C7.19427907,51.2983721 5.07195349,48.1002326 3.66962791,45.4030233" id="Fill-33" fill="#FFFFFF"></path>
                    <path d="M0.352883721,15.917907 C0.352883721,6.90813953 7.87102326,-0.344883721 16.9742791,0.0876744186 C24.9347442,0.465813953 31.513814,6.93604651 32.0161395,14.8881395 C32.233814,18.3039535 31.365907,21.5062791 29.7263721,24.1825581 C27.2133488,28.2848837 25.1705581,32.6760465 24.2273023,37.3937209 C24.0166047,38.45 23.8505581,39.5146512 23.7556744,40.5416279 C23.2045116,46.6239535 18.5273023,51.2983721 12.9989302,51.2983721 C7.19427907,51.2983721 5.07195349,48.1002326 3.66962791,45.4030233" id="Stroke-35" stroke="#1A3270" stroke-width="4" stroke-linecap="round" stroke-linejoin="round"></path>
                </g>
                <g id="Group-40" transform="translate(93.488372, 24.133256)">
                    <path d="M19.9258605,10.5421395 C19.9258605,5.15469767 15.5584186,0.787255814 10.1709767,0.787255814 C5.23562791,0.787255814 1.15702326,4.45283721 0.506790698,9.2095814 C0.411906977,9.90586047 0.929581395,10.528186 1.62586047,10.6244651 C5.92772093,11.2133023 9.24167442,14.9026047 9.24167442,19.3663256 C9.24167442,24.2402791 5.29144186,28.191907 0.417488372,28.191907" id="Fill-37" fill="#FFFFFF"></path>
                    <path d="M19.9258605,10.5421395 C19.9258605,5.15469767 15.5584186,0.787255814 10.1709767,0.787255814 C5.23562791,0.787255814 1.15702326,4.45283721 0.506790698,9.2095814 C0.411906977,9.90586047 0.929581395,10.528186 1.62586047,10.6244651 C5.92772093,11.2133023 9.24167442,14.9026047 9.24167442,19.3663256 C9.24167442,24.2402791 5.29144186,28.191907 0.417488372,28.191907" id="Stroke-39" stroke="#1A3270" stroke-width="4" stroke-linecap="round" stroke-linejoin="round"></path>
                </g>
                <path d="M109.800558,107.090512 C107.541488,104.679349 95.5066047,92.539814 86.7382326,97.6914419 C85.8117209,98.2342326 84.6591628,98.2342326 83.7326512,97.6914419 C74.9642791,92.539814 62.9293953,104.679349 60.6703256,107.090512 C60.4456744,107.331907 60.4233488,107.689116 60.6186977,107.954233 C62.2540465,110.171442 70.1642791,119.714233 85.2354419,119.714233 C100.308,119.714233 108.216837,110.171442 109.852186,107.954233 C110.04893,107.689116 110.026605,107.331907 109.800558,107.090512" id="Fill-41" fill="#FFFFFF"></path>
                <path d="M109.800558,107.090512 C107.541488,104.679349 95.5066047,92.539814 86.7382326,97.6914419 C85.8117209,98.2342326 84.6591628,98.2342326 83.7326512,97.6914419 C74.9642791,92.539814 62.9293953,104.679349 60.6703256,107.090512 C60.4456744,107.331907 60.4233488,107.689116 60.6186977,107.954233 C62.2540465,110.171442 70.1642791,119.714233 85.2354419,119.714233 C100.308,119.714233 108.216837,110.171442 109.852186,107.954233 C110.04893,107.689116 110.026605,107.331907 109.800558,107.090512 Z" id="Stroke-43" stroke="#1A3270" stroke-width="4" stroke-linecap="round" stroke-linejoin="round"></path>
                <g id="Group-48" transform="translate(62.395349, 106.458837)">
                    <path d="M0.306744186,1.03772093 L45.3751163,1.03772093" id="Fill-45" fill="#FFFFFF"></path>
                    <path d="M0.306744186,1.03772093 L45.3751163,1.03772093" id="Stroke-47" stroke="#1A3270" stroke-width="4" stroke-linecap="round" stroke-linejoin="round"></path>
                </g>
            </g>
        </g>
    </g>
</svg>
